<svg fill="none" height="22" viewBox="0 0 88 22" width="88" xmlns="http://www.w3.org/2000/svg"><g id="Group 515327"><path d="M11.5327 7.08471C12.729 8.05227 13.4735 9.36332 13.766 11.0178H10.6617C10.4913 10.1292 10.077 9.43291 9.41891 8.92903C8.76084 8.42515 7.93638 8.17322 6.94554 8.17322C6.41796 8.16057 5.89373 8.26024 5.40762 8.46561C4.92151 8.67099 4.48464 8.97737 4.12601 9.36443C3.37488 10.1593 2.99931 11.3252 2.99931 12.8622C2.99931 14.3991 3.37488 15.5691 4.12601 16.3722C4.48267 16.7626 4.91885 17.0722 5.4052 17.28C5.89155 17.4878 6.41679 17.589 6.94554 17.5768C7.93638 17.5768 8.76084 17.3204 9.41891 16.8076C10.077 16.2948 10.4913 15.5944 10.6617 14.7065H13.7627C13.4716 16.3647 12.7272 17.6802 11.5294 18.653C10.3316 19.6258 8.81927 20.1125 6.99244 20.1133C5.62418 20.1133 4.41522 19.823 3.36557 19.2425C2.31532 18.6625 1.45638 17.7898 0.893317 16.7305C0.297772 15.6379 0 14.3485 0 12.8622C0 11.393 0.297772 10.1121 0.893317 9.01946C1.457 7.96067 2.31579 7.0881 3.36557 6.50752C4.41596 5.92699 5.62492 5.63672 6.99244 5.63672C8.82374 5.63672 10.3372 6.11938 11.5327 7.08471Z" fill="white" id="Vector"></path><path d="M34.8787 0.973633H31.9575V19.9337H34.8787V0.973633Z" fill="white" id="Vector_2"></path><path d="M50.7652 9.01942C50.1742 7.95023 49.2834 7.0771 48.2025 6.50748C47.0635 5.91597 45.7953 5.61673 44.512 5.63668C43.1452 5.63668 41.9195 5.92695 40.8349 6.50748C39.7573 7.08169 38.8677 7.95367 38.2722 9.01942C37.6483 10.1128 37.3364 11.3937 37.3364 12.8621C37.3364 14.3306 37.6483 15.6159 38.2722 16.7182C38.8642 17.7897 39.7544 18.6666 40.8349 19.2424C41.9195 19.823 43.1452 20.1132 44.512 20.1132C45.7953 20.1332 47.0635 19.834 48.2025 19.2424C49.2839 18.6735 50.1748 17.8002 50.7652 16.7305C51.3801 15.6379 51.6876 14.3484 51.6876 12.8621C51.6891 11.3929 51.3816 10.112 50.7652 9.01942ZM48.1132 15.4757C47.7688 16.1348 47.2384 16.6783 46.5878 17.0386C45.9477 17.3752 45.2353 17.5511 44.512 17.5511C43.7887 17.5511 43.0763 17.3752 42.4362 17.0386C41.786 16.6781 41.256 16.1346 40.9119 15.4757C40.5278 14.776 40.3354 13.9049 40.3346 12.8621C40.3346 11.8373 40.5271 10.9705 40.9119 10.262C41.2528 9.59732 41.7833 9.04871 42.4362 8.68561C43.0763 8.34903 43.7887 8.17316 44.512 8.17316C45.2353 8.17316 45.9477 8.34903 46.5878 8.68561C47.2411 9.04865 47.7719 9.59724 48.1132 10.262C48.4973 10.9705 48.6894 11.8373 48.6894 12.8621C48.6909 13.9041 48.4995 14.7753 48.1154 15.4757H48.1132Z" fill="white" id="Vector_3"></path><path d="M70.4628 0.48686C70.8052 0.163033 71.2582 0.00074698 71.8217 2.54942e-06C72.3852 -0.000741882 72.8423 0.161544 73.193 0.48686C73.3633 0.642031 73.4984 0.832016 73.5889 1.04394C73.6795 1.25587 73.7234 1.48478 73.7178 1.71517C73.7254 1.94223 73.6822 2.16812 73.5914 2.37637C73.5006 2.58461 73.3645 2.76997 73.193 2.91892C72.8423 3.22711 72.3852 3.38084 71.8217 3.38009C71.2582 3.37935 70.8052 3.22637 70.4628 2.92115C70.2942 2.7704 70.161 2.5844 70.0724 2.37637C69.9838 2.16834 69.9421 1.94336 69.9502 1.7174C69.9438 1.48772 69.9862 1.2593 70.0746 1.04719C70.1629 0.835082 70.2952 0.644108 70.4628 0.48686Z" fill="white" id="Vector_4"></path><path d="M73.282 5.81641H70.3608V19.9335H73.282V5.81641Z" fill="white" id="Vector_5"></path><path d="M29.4571 12.8622C29.4571 11.393 29.1593 10.1121 28.5638 9.01946C27.9984 7.96039 27.1382 7.08787 26.0871 6.50752C25.0359 5.92699 23.8274 5.63672 22.4613 5.63672C21.0953 5.63672 19.8863 5.92699 18.8345 6.50752C17.7846 7.08839 16.9255 7.96086 16.3611 9.01946C15.7655 10.1128 15.4678 11.3937 15.4678 12.8622C15.4678 14.3507 15.7655 15.6406 16.3611 16.7317C16.9252 17.7902 17.7844 18.6624 18.8345 19.2425C19.8856 19.823 21.0946 20.1133 22.4613 20.1133C23.8281 20.1133 25.0367 19.823 26.0871 19.2425C27.1371 18.6624 27.9963 17.7902 28.5605 16.7317C28.8532 16.1907 29.0729 15.6133 29.2137 15.0146H26.3551C26.1891 15.6487 25.8519 16.225 25.3802 16.6803C24.6287 17.3803 23.569 17.7309 22.4591 17.7309C21.3492 17.7309 20.2883 17.3803 19.5368 16.6803C18.7853 15.9803 18.3822 14.9041 18.3353 13.4516H29.437C29.4504 13.2589 29.4571 13.0624 29.4571 12.8622ZM18.4023 11.4231C18.5609 10.3975 18.9558 9.59628 19.5871 9.01946C20.3568 8.31835 21.3138 7.96817 22.458 7.96891C23.6022 7.96966 24.5588 8.31984 25.3278 9.01946C25.9598 9.59479 26.3547 10.396 26.5125 11.4231H18.4023Z" fill="white" id="Vector_6"></path><path d="M65.816 7.13854C66.8098 8.20136 67.3068 9.71746 67.3068 11.6868V19.9338H64.3767V11.9949C64.3767 10.7297 64.0514 9.74909 63.4007 9.05319C62.7501 8.35729 61.859 8.01046 60.7275 8.01269C59.5624 8.01269 58.6289 8.38483 57.9269 9.12911C57.2249 9.87338 56.8736 10.9641 56.8728 12.4013V19.9293H53.9438V5.85131H56.8728V8.39897C57.6143 6.9934 59.2903 5.54541 61.8586 5.54541C63.5038 5.54541 64.823 6.07645 65.816 7.13854Z" fill="white" id="Vector_7"></path><path d="M87.5594 9.93481H84.7108C84.7108 8.43882 83.2045 7.72096 81.6791 7.72096C80.5134 7.72096 79.179 8.32606 79.179 9.45922C79.179 10.6337 80.4419 11.0222 82.7389 11.6809C85.7404 12.5383 87.9067 13.2963 87.9067 16.1287C87.9067 18.7601 84.8795 20.0775 81.9963 20.0775C78.5001 20.0775 75.5454 18.3068 75.5454 15.3572H78.5347C78.6028 16.9303 80.433 17.7508 81.917 17.7508C83.4446 17.7508 85.1095 17.3043 85.1095 16.0271C85.1095 14.5478 83.8745 14.2944 81.4246 13.5531C78.346 12.6243 76.2444 12.0661 76.2444 9.4983C76.2444 6.93054 78.9869 5.54395 81.7852 5.54395C85.2826 5.5406 87.5594 7.42734 87.5594 9.93481Z" fill="white" id="Vector_8"></path></g></svg>